<?xml version="1.0" encoding="utf-8"?>
<!-- Generator: Adobe Illustrator 26.5.0, SVG Export Plug-In . SVG Version: 6.00 Build 0)  -->
<svg version="1.1" id="Layer_1" xmlns="http://www.w3.org/2000/svg" xmlns:xlink="http://www.w3.org/1999/xlink" x="0px" y="0px"
	 viewBox="0 0 30 30" style="enable-background:new 0 0 30 30;" xml:space="preserve">
<style type="text/css">
	.st0{fill:#FFFFFF;}
</style>
<path class="st0" d="M8.8,0C0.6,0,0,0.6,0,8.8v12.3C0,29.4,0.6,30,8.8,30h12.3c8.2,0,8.8-0.6,8.8-8.8V8.8C30,0.6,29.4,0,21.2,0H8.8z
	 M6.9,3h16.2C26.7,3,27,3.3,27,6.9v16.2c0,3.6-0.3,3.9-3.9,3.9H6.9C3.3,27,3,26.7,3,23.1V6.9C3,3.3,3.3,3,6.9,3z M15.6,5.8v12.5
	c0,1.7-1.5,2.6-2.6,2.6c-0.8,0-2.6-0.6-2.6-2.6c0-2.1,1.7-2.6,2.7-2.6c0.6,0,0.8,0.1,0.8,0.1v-3.3c0,0-0.4-0.1-0.9-0.1
	c-3.4,0-5.8,2.7-5.8,5.9c0,2.7,2.1,5.9,5.9,5.9c4,0,5.9-3.4,5.9-5.8V12c0,0,1.8,1.3,4.2,1.3v-3.1c-2.8-0.2-4.2-2.1-4.3-4.4H15.6z"/>
</svg>
